<svg width="221" height="221" viewBox="0 0 221 221" fill="none" xmlns="http://www.w3.org/2000/svg">
<g id="Group 1">
<path id="Vector 1" d="M95.6201 61.5556C95.7403 59.6324 96.4134 55.317 98.1444 53.4418C99.2262 52.42 102.291 49.6553 105.898 46.7704C106.439 46.2896 107.917 45.6164 109.504 46.7704C110.105 47.4315 111.704 48.9701 113.29 49.8356C115.033 51.1579 118.663 54.4515 119.24 57.0479C119.721 58.3101 120.755 61.6278 121.043 64.8012C120.202 67.5659 118.772 73.8166 119.781 76.7015C119.902 77.6631 119.601 79.4061 117.437 78.6849C116.776 77.7833 115.382 76.6294 115.093 79.2258C114.492 81.089 114.985 84.9235 121.765 85.3563C125.792 86.5583 134.422 92.0276 136.73 104.289C137.331 110.659 138.353 125.06 137.632 131.695V132.958C137.331 134.22 137.415 136.564 140.156 135.842C144.784 136.263 154.184 139.557 154.761 149.366C154.641 150.688 153.968 153.837 152.237 155.857H69.8361C67.7325 155.857 63.381 155.316 62.8041 153.152C61.4818 150.928 60.1355 145.363 65.3284 140.891C66.4703 140.11 69.8721 138.403 74.3437 137.826M122.486 131.695L128.075 127.548C128.676 126.947 129.518 125.204 128.075 123.041C127.414 120.697 125.804 113.917 124.65 105.551C124.409 104.709 123.784 103.531 123.207 105.551C121.584 109.277 118.916 118.569 121.224 125.926L122.486 131.695Z" stroke="#89C223" stroke-width="3.60615"/>
<path id="Vector 2" d="M92.8881 106.045C81.1471 120.559 73.9741 123.961 71.8552 123.848C71.5839 124.936 72.6561 126.093 73.2261 126.536C75.6821 127.869 82.1959 122.65 85.1458 119.873C85.0789 141.444 92.0141 146.436 95.4901 146.236C97.9712 124.912 109.322 112.993 114.687 109.698C103.658 110.707 95.5344 125.781 92.8514 133.193C90.2079 127.126 91.7744 112.566 92.8881 106.045Z" fill="#89C223"/>
<path id="Ellipse 8" d="M63.1483 47.3516C77.8849 36.3015 96.0221 30.7532 114.419 31.6677C132.815 32.5822 150.313 39.9019 163.881 52.3591C177.449 64.8163 186.233 81.6266 188.712 99.8784C191.19 118.13 187.208 136.674 177.453 152.299C167.699 167.923 152.787 179.644 135.301 185.432C117.814 191.22 98.8544 190.709 81.7045 183.99C64.5547 177.27 50.2951 164.764 41.3952 148.637C32.4954 132.51 29.5159 113.779 32.9728 95.6869L35.261 96.1242C31.9062 113.682 34.7977 131.861 43.4349 147.511C52.072 163.162 65.9108 175.299 82.5544 181.821C99.1981 188.342 117.598 188.837 134.569 183.22C151.539 177.604 166.011 166.228 175.477 151.065C184.944 135.902 188.809 117.905 186.403 100.192C183.998 82.4788 175.473 66.1647 162.305 54.0752C149.138 41.9856 132.157 34.8819 114.303 33.9944C96.4494 33.1069 78.8475 38.4914 64.5459 49.2155L63.1483 47.3516Z" fill="#89C223"/>
<path id="Vector 3" d="M39.8139 72.3332C42.2085 74.9004 43.0917 77.277 43.234 78.1444L37.0678 76.8949L39.9889 82.1713C29.6951 80.5712 27.4575 70.5233 27.6254 65.6993C30.703 72.4301 37.0334 72.9264 39.8139 72.3332Z" fill="#89C223"/>
<path id="Vector 4" d="M39.9111 58.5698C41.6144 61.6395 41.8973 64.1591 41.8258 65.0352L36.1442 62.3328L37.7039 68.1588C28.1017 64.1189 28.3581 53.828 29.6866 49.1876C31.0467 56.4625 37.0697 58.4736 39.9111 58.5698Z" fill="#89C223"/>
<path id="Vector 5" d="M45.7303 61.1057C47.3059 63.9451 49.1449 65.4004 49.8675 65.7731L50.5276 59.9911L54.3367 64.067C55.8661 54.5532 47.6637 49.7172 43.3714 48.4884C48.4154 53.1169 47.0457 58.8285 45.7303 61.1057Z" fill="#89C223"/>
</g>
</svg>
